<?xml version="1.0" encoding="UTF-8"?>
<svg width="1002pt" height="302pt" version="1.0" viewBox="0 0 1002 302" xmlns="http://www.w3.org/2000/svg">
 <g transform="translate(0 302) scale(.1 -.1)">
  <path d="m710 3005c-268-58-457-231-526-485-13-47-18-103-19-200 0-135 0-136 34-204 46-90 163-201 267-252 41-21 77-34 80-31 4 3-12 50-35 103-139 323-87 569 144 683 96 47 188 64 320 58 337-17 551-215 495-458-16-71-45-119-122-205-105-115-112-162-23-149 78 11 183 70 256 145 148 150 182 311 109 511-90 247-305 426-583 483-94 20-306 20-397 1z" fill="#fcb412"/>
  <g fill="#fff">
   <path d="m845 2451c-138-36-213-139-222-306-6-93 11-169 62-286 37-85 151-281 202-349 46-60 119-210 139-285 27-103 30-248 6-343-51-200-190-338-352-350-84-6-133 8-210 60-71 47-132 123-186 232-29 59-37 90-44 167-14 151-23 158-95 77-120-136-171-332-130-505 45-192 171-336 390-445 163-82 304-118 461-118 217 0 395 72 566 229 153 141 219 312 204 531-18 279-138 538-392 848-270 331-353 479-312 555 26 49 117 94 213 104 51 6 71 12 73 23 4 22-84 107-143 138-54 27-170 39-230 23z"/>
   <path d="m8364 1708c-45-21-60-123-25-165 63-76 171-28 171 76 0 73-80 122-146 89z"/>
   <path d="m2373 1226c-91-21-210-87-278-154-73-71-114-136-150-232-25-66-28-89-28-190-1-124 8-160 66-278 36-72 120-162 199-214 188-123 422-127 613-10 134 81 173 148 121 209-29 35-75 50-104 34-10-5-40-28-68-51-93-76-226-106-344-76-78 20-131 50-187 107-41 40-103 147-103 176 0 11 82 13 460 13h459l26 27c21 23 25 37 25 88 0 230-173 456-409 535-83 28-215 35-298 16zm228-192c83-25 130-52 181-106 43-45 75-100 92-155l7-23h-386-386l6 23c13 42 60 120 92 153 101 104 259 148 394 108z"/>
   <path d="m3306 1216c-20-19-26-35-26-67 0-62 353-1036 386-1067 63-56 73-39 240 421 81 224 150 407 153 407s71-183 151-406c124-348 149-409 173-426 18-13 34-17 45-12 9 4 20 7 23 6 11-2 33 56 214 558 96 267 175 498 175 513 0 37-28 84-54 91-23 6-61-15-74-41-5-10-74-198-153-419l-144-400-150 413c-82 227-158 422-167 433-10 11-26 20-36 20-45 0-60-32-209-447-81-226-150-409-153-407-2 3-70 186-150 407s-149 410-155 419c-5 9-22 19-37 23-21 5-33 1-52-19z"/>
   <path d="m5523 1226c-164-34-331-165-407-318-158-323 4-699 354-819 166-56 406-10 535 102l35 31v-42c0-87 65-138 133-105 19 9 39 27 46 41 14 32 15 568 1 645-15 83-90 227-152 289-66 68-165 131-248 159-80 28-211 35-297 17zm257-200c74-27 147-83 190-148 52-79 65-125 64-233 0-115-25-183-97-262-187-204-527-161-646 82-60 122-62 237-7 360 63 140 218 231 376 221 41-2 95-12 120-20z"/>
   <path d="m6792 1220c-111-30-187-75-273-160-55-55-86-97-113-151-58-118-66-176-66-489 0-257 1-277 20-308 56-91 170-49 170 63v47l38-30c237-185 542-170 765 38 63 59 83 86 121 163 66 135 80 238 51 378-26 123-106 252-212 340-132 109-336 154-501 109zm308-210c246-114 306-430 119-634-148-162-417-164-572-4-120 125-147 292-73 453 89 195 323 278 526 185z"/>
   <path d="m8355 1215-30-25-3-532-2-533 25-27c14-15 36-30 49-34 37-9 90 21 104 59 9 24 12 172 12 536 0 451-2 506-17 531-31 54-90 64-138 25z"/>
   <path d="m9315 1229c-27-6-88-28-134-50-150-73-274-223-316-385-20-77-22-644-2-687 18-40 73-55 120-32 19 9 39 24 44 33 4 9 10 161 13 337l5 320 28 56c56 113 141 184 255 214 76 19 132 19 207-1 134-34 224-118 271-251 23-66 24-78 24-356 0-251 2-293 17-317 16-29 51-50 79-50 26 0 72 32 83 57 17 37 14 571-3 654-16 75-68 184-117 246-42 52-148 138-203 163-106 50-264 71-371 49z"/>
   <path d="m7831 251c-26-24-31-37-31-75 0-79 31-116 99-116 40 0 91 59 91 105s-16 78-50 98c-41 25-74 21-109-12z"/>
  </g>
 </g>
</svg>
